<svg xmlns="http://www.w3.org/2000/svg" width="24" height="24" viewBox="0 0 24 24" fill="none" stroke="currentColor" stroke-width="2" stroke-linecap="round" stroke-linejoin="round">
  <path d="M14.12 7.58a1 1 0 0 0 0 1.41l3.54 3.54a1 1 0 0 0 1.41 0l1.59-1.59a2 2 0 0 0 0-2.83l-1.59-1.59a1 1 0 0 0-1.41 0l-3.54 3.54Z"/>
  <path d="M9.88 16.42a1 1 0 0 0 0-1.41l-3.54-3.54a1 1 0 0 0-1.41 0l-1.59 1.59a2 2 0 0 0 0 2.83l1.59 1.59a1 1 0 0 0 1.41 0l3.54-3.54Z"/>
  <line x1="8" x2="16" y1="12" y2="12"/>
</svg>